<!-- Generated by IcoMoon.io -->
<svg version="1.1" xmlns="http://www.w3.org/2000/svg" width="32" height="32" viewBox="0 0 32 32">
<title>envelope</title>
<path fill="#757575" d="M29.003 4.002h-26.003c-1.654 0-3 1.346-3 3v18.002c0 1.654 1.346 3 3 3h26.003c1.654 0 3-1.346 3-3v-18.002c0-1.654-1.346-3-3-3zM29.003 6.002c0.136 0 0.266 0.028 0.384 0.078l-13.385 11.601-13.385-11.601c0.113-0.049 0.245-0.078 0.384-0.078h26.003zM29.003 26.005h-26.003c-0.552 0-1-0.448-1-1v0-16.812l13.345 11.567c0.175 0.152 0.404 0.245 0.656 0.245s0.482-0.093 0.657-0.246l-0.001 0.001 13.345-11.567v16.812c0 0.552-0.448 1-1 1v0z"></path>
</svg>
