<!-- Generated by IcoMoon.io -->
<svg version="1.1" xmlns="http://www.w3.org/2000/svg" width="32" height="32" viewBox="0 0 32 32">
<title>smartphone</title>
<path fill="#757575" d="M23.001 0h-14.002c-1.654 0-3 1.346-3 3v26.003c0 1.654 1.346 3 3 3h14.002c1.654 0 3-1.346 3-3v-26.003c0-1.654-1.346-3-3-3zM8.999 2h14.002c0.552 0 1 0.448 1 1v0 21.002h-16.002v-21.002c0-0.552 0.448-1 1-1v0zM23.001 30.003h-14.002c-0.552 0-1-0.448-1-1v0-3h16.002v3c0 0.552-0.448 1-1 1v0z"></path>
<path fill="#757575" d="M10.707 27.481c0.18 0.163 0.293 0.399 0.293 0.66s-0.113 0.497-0.292 0.659l-0.001 0.001c-0.186 0.17-0.435 0.275-0.708 0.275s-0.522-0.104-0.709-0.275l0.001 0.001c-0.18-0.163-0.293-0.399-0.293-0.66s0.113-0.497 0.292-0.659l0.001-0.001c0.186-0.17 0.435-0.275 0.708-0.275s0.522 0.104 0.709 0.275l-0.001-0.001z"></path>
</svg>
